<svg id="Layer_1" data-name="Layer 1" xmlns="http://www.w3.org/2000/svg" viewBox="0 0 1612 303"><defs><style>.cls-1{fill:#2668b2;}.cls-2{font-size:125px;letter-spacing:-0.08em;}.cls-2,.cls-3{font-family:Marion-Bold, Marion;font-weight:700;}.cls-3{font-size:78px;letter-spacing:-0.03em;}</style></defs><path class="cls-1" d="M465.35,172.26v40.15a950.49,950.49,0,0,0-138.9-9.91C219,202.5,121.66,219.44,49.88,247c71.78-19.43,169.13-31.23,276.57-31.23s204.77,11.8,276.55,31c-14.32-5.45-29.66-10.48-45.89-15,.6-5.18,1.24-18.63-8.44-21.59h-15v-14h7.61c4.44,0,8.85-2,11.08-5.65,2.44-3.7,3.17-9.34-3.19-16.49v-3.68h5.15a16.2,16.2,0,0,0,.48-6.39,5.59,5.59,0,0,0-5.63-4.18h-6.65s-5.66-.48-4.92,12.3H513.93c4.64-2.67,9.93-8.26,8.18-19.91,0,0,8.86-5.91,8.12-13-.74-5.88-6.39-10.07-12.53-10.07l-2.71.74a7,7,0,0,0-3.94,2.71,4.12,4.12,0,0,0,3,5.89,5.59,5.59,0,0,0,5.15-1.73s2.94,1.47.74,4.92a5.24,5.24,0,0,1-5.15,2H493.12V128.25S502,127,505.9,119.4c2.46-4.66,3-10.83-.73-14.76a9.28,9.28,0,0,0-13.52.74s-3.7,7.88,6.62,5.17c0,0,1.24,4.42-.23,5.4H483v-9.81s16.48-14.76-5.15-24.84h-1V76.13s7.38-7.38-3.45-16.23l-1.47-1V52.77h-6.62Z"/><text class="cls-2" transform="translate(122.41 187.23) scale(0.8 1)">BIAMC</text><text class="cls-3" transform="translate(652.44 137.92) scale(0.8 1)">Bali International</text><text class="cls-3" transform="translate(652.1 213.88) scale(0.8 1)">Arbitration and Mediation Center</text><rect x="626" y="49" width="5" height="204"/></svg>